<?xml version="1.0" encoding="UTF-8" standalone="no"?><!-- Generator: Gravit.io --><svg xmlns="http://www.w3.org/2000/svg" xmlns:xlink="http://www.w3.org/1999/xlink" style="isolation:isolate" viewBox="0 0 268.25 151" width="268.25pt" height="151pt"><defs><clipPath id="_clipPath_YPppmdo3VY9ekuDIfzQwaoliAHiGSWhT"><rect width="268.25" height="151"/></clipPath></defs><g clip-path="url(#_clipPath_YPppmdo3VY9ekuDIfzQwaoliAHiGSWhT)"><path d=" M 160.425 27.964 C 169.634 21.674 180.766 18 192.75 18 C 224.485 18 250.25 43.765 250.25 75.5 C 250.25 107.235 224.485 133 192.75 133 C 179.393 133 167.093 128.436 157.325 120.786 C 172.52 110.44 182.5 93.001 182.5 73.25 C 182.5 54.872 173.859 38.496 160.425 27.964 Z " fill="none" vector-effect="non-scaling-stroke" stroke-width="12" stroke="rgb(0,0,0)" stroke-linejoin="miter" stroke-linecap="square" stroke-miterlimit="3"/><circle vector-effect="non-scaling-stroke" cx="125" cy="73.25" r="57.50000000000001" fill="none"/><g style="isolation: isolate;"><circle vector-effect="non-scaling-stroke" cx="125" cy="73.25" r="57.50000000000001" fill="none" stroke-width="20" stroke="rgb(255,255,255)" stroke-linejoin="miter" stroke-linecap="square" stroke-miterlimit="3"/><circle vector-effect="non-scaling-stroke" cx="125" cy="73.25" r="57.50000000000001" fill="none" stroke-width="12" stroke="rgb(0,0,0)" stroke-linejoin="miter" stroke-linecap="square" stroke-miterlimit="3"/></g><path d=" M 67.5 73.25 C 67.5 41.515 93.265 15.75 125 15.75 M 67.5 73.25 C 67.5 104.985 41.735 130.75 10 130.75" fill-rule="evenodd" fill="none"/><g style="isolation: isolate;"><path d=" M 67.5 73.25 C 67.5 41.515 93.265 15.75 125 15.75 M 67.5 73.25 C 67.5 104.985 41.735 130.75 10 130.75" fill-rule="evenodd" fill="none" vector-effect="non-scaling-stroke" stroke-width="20" stroke="rgb(255,255,255)" stroke-linejoin="miter" stroke-linecap="square" stroke-miterlimit="3"/><path d=" M 67.5 73.25 C 67.5 41.515 93.265 15.75 125 15.75 M 67.5 73.25 C 67.5 104.985 41.735 130.75 10 130.75" fill-rule="evenodd" fill="none" vector-effect="non-scaling-stroke" stroke-width="12" stroke="rgb(0,0,0)" stroke-linejoin="miter" stroke-linecap="square" stroke-miterlimit="3"/></g></g></svg>