<?xml version="1.0" encoding="UTF-8" standalone="no"?><!-- Generator: Gravit.io --><svg xmlns="http://www.w3.org/2000/svg" xmlns:xlink="http://www.w3.org/1999/xlink" style="isolation:isolate" viewBox="0 0 314.304 167.667" width="314.304pt" height="167.667pt"><defs><clipPath id="_clipPath_RjwzuFvgY3j8LhWaLsH60XLKBVK9YLLx"><rect width="314.304" height="167.667"/></clipPath></defs><g clip-path="url(#_clipPath_RjwzuFvgY3j8LhWaLsH60XLKBVK9YLLx)"><path d=" M 203.332 26.602 C 211.559 22.69 220.762 20.5 230.471 20.5 C 265.424 20.5 293.804 48.879 293.804 83.833 C 293.804 118.788 265.424 147.167 230.471 147.167 C 220.762 147.167 211.559 144.977 203.332 141.065 M 158.545 21.521 C 188.077 26.888 210.5 52.763 210.5 83.833 C 210.5 118.787 182.121 147.167 147.167 147.167 C 123.864 147.167 103.483 134.554 92.485 115.788 M 83.833 83.833 C 83.833 118.788 55.455 147.167 20.5 147.167 M 83.833 83.833 C 83.833 50.821 109.146 23.673 141.406 20.759" fill-rule="evenodd" fill="none" vector-effect="non-scaling-stroke" stroke-width="14" stroke="rgb(0,0,0)" stroke-linejoin="miter" stroke-linecap="round" stroke-miterlimit="3"/></g></svg>