<?xml version="1.0" encoding="UTF-8" standalone="no"?><!-- Generator: Gravit.io --><svg xmlns="http://www.w3.org/2000/svg" xmlns:xlink="http://www.w3.org/1999/xlink" style="isolation:isolate" viewBox="0 0 314.304 167.667" width="314.304pt" height="167.667pt"><defs><clipPath id="_clipPath_SHrAfz9YgcOHtggheu89xWapop44Q4Ip"><rect width="314.304" height="167.667"/></clipPath></defs><g clip-path="url(#_clipPath_SHrAfz9YgcOHtggheu89xWapop44Q4Ip)"><defs><filter id="lrdCztekfVRq7dzDaE4F7kJbIpH9RgRC" x="-200%" y="-200%" width="400%" height="400%" filterUnits="objectBoundingBox" color-interpolation-filters="sRGB"><feGaussianBlur xmlns="http://www.w3.org/2000/svg" in="SourceGraphic" stdDeviation="3.4348872502712227"/><feOffset xmlns="http://www.w3.org/2000/svg" dx="2" dy="2" result="pf_100_offsetBlur"/><feFlood xmlns="http://www.w3.org/2000/svg" flood-color="#000000" flood-opacity="0.18"/><feComposite xmlns="http://www.w3.org/2000/svg" in2="pf_100_offsetBlur" operator="in" result="pf_100_dropShadow"/><feBlend xmlns="http://www.w3.org/2000/svg" in="SourceGraphic" in2="pf_100_dropShadow" mode="normal"/></filter></defs><g filter="url(#lrdCztekfVRq7dzDaE4F7kJbIpH9RgRC)"><path d=" M 201.332 24.602 C 209.559 20.69 218.762 18.5 228.471 18.5 C 263.424 18.5 291.804 46.879 291.804 81.833 C 291.804 116.788 263.424 145.167 228.471 145.167 C 218.762 145.167 209.559 142.977 201.332 139.065 M 156.545 19.521 C 186.077 24.888 208.5 50.763 208.5 81.833 C 208.5 116.787 180.121 145.167 145.167 145.167 C 121.864 145.167 101.483 132.554 90.485 113.788 M 81.833 81.833 C 81.833 116.788 53.455 145.167 18.5 145.167 M 81.833 81.833 C 81.833 48.821 107.146 21.673 139.406 18.759" fill-rule="evenodd" fill="none"/><g style="isolation: isolate;"><path d=" M 201.332 24.602 C 209.559 20.69 218.762 18.5 228.471 18.5 C 263.424 18.5 291.804 46.879 291.804 81.833 C 291.804 116.788 263.424 145.167 228.471 145.167 C 218.762 145.167 209.559 142.977 201.332 139.065 M 156.545 19.521 C 186.077 24.888 208.5 50.763 208.5 81.833 C 208.5 116.787 180.121 145.167 145.167 145.167 C 121.864 145.167 101.483 132.554 90.485 113.788 M 81.833 81.833 C 81.833 116.788 53.455 145.167 18.5 145.167 M 81.833 81.833 C 81.833 48.821 107.146 21.673 139.406 18.759" fill-rule="evenodd" fill="none" vector-effect="non-scaling-stroke" stroke-width="19" stroke="rgb(255,255,255)" stroke-linejoin="miter" stroke-linecap="round" stroke-miterlimit="3"/><linearGradient id="_lgradient_0" x1="0" y1="0.5" x2="1" y2="0.5"><stop offset="1.6666666666666667%" stop-opacity="1" style="stop-color:rgb(63,115,167)"/><stop offset="98.33333333333333%" stop-opacity="1" style="stop-color:rgb(35,62,99)"/></linearGradient><path d=" M 201.332 24.602 C 209.559 20.69 218.762 18.5 228.471 18.5 C 263.424 18.5 291.804 46.879 291.804 81.833 C 291.804 116.788 263.424 145.167 228.471 145.167 C 218.762 145.167 209.559 142.977 201.332 139.065 M 156.545 19.521 C 186.077 24.888 208.5 50.763 208.5 81.833 C 208.5 116.787 180.121 145.167 145.167 145.167 C 121.864 145.167 101.483 132.554 90.485 113.788 M 81.833 81.833 C 81.833 116.788 53.455 145.167 18.5 145.167 M 81.833 81.833 C 81.833 48.821 107.146 21.673 139.406 18.759" fill-rule="evenodd" fill="none" vector-effect="non-scaling-stroke" stroke-width="14" stroke="url(#_lgradient_0)" stroke-linejoin="miter" stroke-linecap="round" stroke-miterlimit="3"/></g></g></g></svg>