<?xml version="1.0" encoding="UTF-8" standalone="no"?><!-- Generator: Gravit.io --><svg xmlns="http://www.w3.org/2000/svg" xmlns:xlink="http://www.w3.org/1999/xlink" style="isolation:isolate" viewBox="0 0 311.811 311.811" width="311.811pt" height="311.811pt"><defs><clipPath id="_clipPath_HSwaJM8jWr5CPrZcy0bJ9PT4dITEJwJq"><rect width="311.811" height="311.811"/></clipPath></defs><g clip-path="url(#_clipPath_HSwaJM8jWr5CPrZcy0bJ9PT4dITEJwJq)"><defs><filter id="KD8aLjChG8jeHhAzMi4ulM1iUL9W9pAC" x="-200%" y="-200%" width="400%" height="400%" filterUnits="objectBoundingBox" color-interpolation-filters="sRGB"><feGaussianBlur xmlns="http://www.w3.org/2000/svg" in="SourceGraphic" stdDeviation="3.4348872502712227"/><feOffset xmlns="http://www.w3.org/2000/svg" dx="2" dy="2" result="pf_100_offsetBlur"/><feFlood xmlns="http://www.w3.org/2000/svg" flood-color="#000000" flood-opacity="0.18"/><feComposite xmlns="http://www.w3.org/2000/svg" in2="pf_100_offsetBlur" operator="in" result="pf_100_dropShadow"/><feBlend xmlns="http://www.w3.org/2000/svg" in="SourceGraphic" in2="pf_100_dropShadow" mode="normal"/></filter></defs><g filter="url(#KD8aLjChG8jeHhAzMi4ulM1iUL9W9pAC)"><path d=" M 202.085 98.674 C 210.313 94.762 219.515 92.572 229.224 92.572 C 264.177 92.572 292.558 120.951 292.558 155.906 C 292.558 190.86 264.177 219.239 229.224 219.239 C 219.515 219.239 210.313 217.049 202.085 213.137 M 157.298 93.593 C 186.831 98.96 209.253 124.835 209.253 155.906 C 209.253 190.859 180.875 219.239 145.92 219.239 C 122.617 219.239 102.236 206.626 91.239 187.861 M 82.587 155.906 C 82.587 190.86 54.208 219.239 19.253 219.239 M 82.587 155.906 C 82.587 122.893 107.9 95.746 140.159 92.831" fill-rule="evenodd" fill="none"/><g style="isolation: isolate;"><path d=" M 202.085 98.674 C 210.313 94.762 219.515 92.572 229.224 92.572 C 264.177 92.572 292.558 120.951 292.558 155.906 C 292.558 190.86 264.177 219.239 229.224 219.239 C 219.515 219.239 210.313 217.049 202.085 213.137 M 157.298 93.593 C 186.831 98.96 209.253 124.835 209.253 155.906 C 209.253 190.859 180.875 219.239 145.92 219.239 C 122.617 219.239 102.236 206.626 91.239 187.861 M 82.587 155.906 C 82.587 190.86 54.208 219.239 19.253 219.239 M 82.587 155.906 C 82.587 122.893 107.9 95.746 140.159 92.831" fill-rule="evenodd" fill="none" vector-effect="non-scaling-stroke" stroke-width="19" stroke="rgb(255,255,255)" stroke-linejoin="miter" stroke-linecap="round" stroke-miterlimit="3"/><linearGradient id="_lgradient_1" x1="0" y1="0.5" x2="1" y2="0.5"><stop offset="1.6666666666666667%" stop-opacity="1" style="stop-color:rgb(63,115,167)"/><stop offset="98.33333333333333%" stop-opacity="1" style="stop-color:rgb(35,62,99)"/></linearGradient><path d=" M 202.085 98.674 C 210.313 94.762 219.515 92.572 229.224 92.572 C 264.177 92.572 292.558 120.951 292.558 155.906 C 292.558 190.86 264.177 219.239 229.224 219.239 C 219.515 219.239 210.313 217.049 202.085 213.137 M 157.298 93.593 C 186.831 98.96 209.253 124.835 209.253 155.906 C 209.253 190.859 180.875 219.239 145.92 219.239 C 122.617 219.239 102.236 206.626 91.239 187.861 M 82.587 155.906 C 82.587 190.86 54.208 219.239 19.253 219.239 M 82.587 155.906 C 82.587 122.893 107.9 95.746 140.159 92.831" fill-rule="evenodd" fill="none" vector-effect="non-scaling-stroke" stroke-width="14" stroke="url(#_lgradient_1)" stroke-linejoin="miter" stroke-linecap="round" stroke-miterlimit="3"/></g></g></g></svg>